{
	"asset":{
		"generator":"Khronos glTF Blender I/O v4.2.60",
		"version":"2.0"
	},
	"extensionsUsed":[
		"KHR_texture_transform"
	],
	"extensionsRequired":[
		"KHR_texture_transform"
	],
	"scene":0,
	"scenes":[
		{
			"name":"Scene",
			"nodes":[
				1
			]
		}
	],
	"nodes":[
		{
			"mesh":0,
			"name":"Cube.001",
			"rotation":[
				0,
				-1,
				0,
				1.9470719792025193e-07
			],
			"scale":[
				0.03485551476478577,
				0.03485551476478577,
				0.03485551476478577
			],
			"translation":[
				0,
				0.00241677463054657,
				0
			]
		},
		{
			"children":[
				0
			],
			"name":"Portal",
			"scale":[
				11.524357795715332,
				11.524357795715332,
				11.524357795715332
			],
			"translation":[
				-0.6578235626220703,
				0.8334199786186218,
				-0.0884103775024414
			]
		}
	],
	"materials":[
		{
			"doubleSided":true,
			"name":"Material.017",
			"normalTexture":{
				"extensions":{
					"KHR_texture_transform":{
						"offset":[
							0,
							-2
						],
						"scale":[
							3,
							3
						]
					}
				},
				"index":0
			},
			"pbrMetallicRoughness":{
				"baseColorTexture":{
					"extensions":{
						"KHR_texture_transform":{
							"offset":[
								0,
								-2
							],
							"scale":[
								3,
								3
							]
						}
					},
					"index":1
				},
				"metallicFactor":0,
				"metallicRoughnessTexture":{
					"extensions":{
						"KHR_texture_transform":{
							"offset":[
								0,
								-2
							],
							"scale":[
								3,
								3
							]
						}
					},
					"index":2
				}
			}
		}
	],
	"meshes":[
		{
			"name":"Cube.007",
			"primitives":[
				{
					"attributes":{
						"POSITION":0,
						"NORMAL":1,
						"TEXCOORD_0":2
					},
					"indices":3,
					"material":0
				}
			]
		}
	],
	"textures":[
		{
			"sampler":0,
			"source":0
		},
		{
			"sampler":0,
			"source":1
		},
		{
			"sampler":0,
			"source":2
		}
	],
	"images":[
		{
			"mimeType":"image/jpeg",
			"name":"Rock037_2K_NormalGL",
			"uri":"Rock037_2K_NormalGL.jpg"
		},
		{
			"mimeType":"image/jpeg",
			"name":"Rock037_2K_Color",
			"uri":"Rock037_2K_Color.jpg"
		},
		{
			"mimeType":"image/png",
			"name":"Rock037_2K_Roughness",
			"uri":"Rock037_2K_Roughness.png"
		}
	],
	"accessors":[
		{
			"bufferView":0,
			"componentType":5126,
			"count":2152,
			"max":[
				2.5754079818725586,
				7.28383207321167,
				0.9933547973632812
			],
			"min":[
				-2.6762948036193848,
				-0.24011455476284027,
				-1.0482048988342285
			],
			"type":"VEC3"
		},
		{
			"bufferView":1,
			"componentType":5126,
			"count":2152,
			"type":"VEC3"
		},
		{
			"bufferView":2,
			"componentType":5126,
			"count":2152,
			"type":"VEC2"
		},
		{
			"bufferView":3,
			"componentType":5123,
			"count":10176,
			"type":"SCALAR"
		}
	],
	"bufferViews":[
		{
			"buffer":0,
			"byteLength":25824,
			"byteOffset":0,
			"target":34962
		},
		{
			"buffer":0,
			"byteLength":25824,
			"byteOffset":25824,
			"target":34962
		},
		{
			"buffer":0,
			"byteLength":17216,
			"byteOffset":51648,
			"target":34962
		},
		{
			"buffer":0,
			"byteLength":20352,
			"byteOffset":68864,
			"target":34963
		}
	],
	"samplers":[
		{
			"magFilter":9729,
			"minFilter":9987
		}
	],
	"buffers":[
		{
			"byteLength":89216,
			"uri":"cube.bin"
		}
	]
}
