{
	"asset":{
		"generator":"Khronos glTF Blender I/O v4.2.69",
		"version":"2.0"
	},
	"scene":0,
	"scenes":[
		{
			"name":"Scene",
			"nodes":[
				1
			]
		}
	],
	"nodes":[
		{
			"mesh":0,
			"name":"Plane"
		},
		{
			"children":[
				0
			],
			"name":"Old Door"
		}
	],
	"materials":[
		{
			"doubleSided":true,
			"name":"Material.001",
			"normalTexture":{
				"index":0,
				"scale":0.30000001192092896
			},
			"pbrMetallicRoughness":{
				"baseColorTexture":{
					"index":1
				},
				"metallicFactor":0,
				"metallicRoughnessTexture":{
					"index":2
				}
			}
		}
	],
	"meshes":[
		{
			"name":"Plane",
			"primitives":[
				{
					"attributes":{
						"POSITION":0,
						"NORMAL":1,
						"TEXCOORD_0":2
					},
					"indices":3,
					"material":0
				}
			]
		}
	],
	"textures":[
		{
			"sampler":0,
			"source":0
		},
		{
			"sampler":0,
			"source":1
		},
		{
			"sampler":0,
			"source":2
		}
	],
	"images":[
		{
			"mimeType":"image/jpeg",
			"name":"door_Normal",
			"uri":"door_Normal.jpg"
		},
		{
			"mimeType":"image/png",
			"name":"door_Color",
			"uri":"door_Color.png"
		},
		{
			"mimeType":"image/png",
			"name":"door_Roughness",
			"uri":"door_Roughness.png"
		}
	],
	"accessors":[
		{
			"bufferView":0,
			"componentType":5126,
			"count":2052,
			"max":[
				0.4739311933517456,
				2.1831862926483154,
				0.14787526428699493
			],
			"min":[
				-0.4739314019680023,
				-3.7064936009301164e-08,
				-0.02659180574119091
			],
			"type":"VEC3"
		},
		{
			"bufferView":1,
			"componentType":5126,
			"count":2052,
			"type":"VEC3"
		},
		{
			"bufferView":2,
			"componentType":5126,
			"count":2052,
			"type":"VEC2"
		},
		{
			"bufferView":3,
			"componentType":5123,
			"count":5892,
			"type":"SCALAR"
		}
	],
	"bufferViews":[
		{
			"buffer":0,
			"byteLength":24624,
			"byteOffset":0,
			"target":34962
		},
		{
			"buffer":0,
			"byteLength":24624,
			"byteOffset":24624,
			"target":34962
		},
		{
			"buffer":0,
			"byteLength":16416,
			"byteOffset":49248,
			"target":34962
		},
		{
			"buffer":0,
			"byteLength":11784,
			"byteOffset":65664,
			"target":34963
		}
	],
	"samplers":[
		{
			"magFilter":9729,
			"minFilter":9987
		}
	],
	"buffers":[
		{
			"byteLength":77448,
			"uri":"door.bin"
		}
	]
}
