{
	"asset":{
		"generator":"Khronos glTF Blender I/O v4.2.60",
		"version":"2.0"
	},
	"scene":0,
	"scenes":[
		{
			"name":"Scene",
			"nodes":[
				1
			]
		}
	],
	"nodes":[
		{
			"mesh":0,
			"name":"Magnifier-Freepoly.org",
			"rotation":[
				0.2747659385204315,
				-0.57795649766922,
				0.5038570761680603,
				0.5801706910133362
			],
			"scale":[
				2.6569695472717285,
				2.6569693088531494,
				2.6569693088531494
			],
			"translation":[
				0.005063474178314209,
				-0.0006467103958129883,
				0.036761924624443054
			]
		},
		{
			"children":[
				0
			],
			"name":"Magnifier",
			"translation":[
				-0.6578235626220703,
				0.8334199786186218,
				-0.0884103775024414
			]
		}
	],
	"materials":[
		{
			"alphaMode":"BLEND",
			"doubleSided":true,
			"name":"default",
			"normalTexture":{
				"index":0
			},
			"pbrMetallicRoughness":{
				"baseColorTexture":{
					"index":1
				},
				"metallicRoughnessTexture":{
					"index":2
				}
			}
		}
	],
	"meshes":[
		{
			"name":"sd_default_0",
			"primitives":[
				{
					"attributes":{
						"POSITION":0,
						"NORMAL":1,
						"TEXCOORD_0":2
					},
					"indices":3,
					"material":0
				}
			]
		}
	],
	"textures":[
		{
			"sampler":0,
			"source":0
		},
		{
			"sampler":0,
			"source":1
		},
		{
			"sampler":0,
			"source":2
		}
	],
	"images":[
		{
			"mimeType":"image/jpeg",
			"name":"default_normal",
			"uri":"default_normal.jpg"
		},
		{
			"mimeType":"image/png",
			"name":"default_baseColor",
			"uri":"default_baseColor.png"
		},
		{
			"mimeType":"image/jpeg",
			"name":"default_metallicRoughness",
			"uri":"default_metallicRoughness.jpg"
		}
	],
	"accessors":[
		{
			"bufferView":0,
			"componentType":5126,
			"count":2501,
			"max":[
				0.06853605806827545,
				0.025233300402760506,
				0.12571947276592255
			],
			"min":[
				-0.06853605806827545,
				0.0006467215716838837,
				-0.17254677414894104
			],
			"type":"VEC3"
		},
		{
			"bufferView":1,
			"componentType":5126,
			"count":2501,
			"type":"VEC3"
		},
		{
			"bufferView":2,
			"componentType":5126,
			"count":2501,
			"type":"VEC2"
		},
		{
			"bufferView":3,
			"componentType":5123,
			"count":12072,
			"type":"SCALAR"
		}
	],
	"bufferViews":[
		{
			"buffer":0,
			"byteLength":30012,
			"byteOffset":0,
			"target":34962
		},
		{
			"buffer":0,
			"byteLength":30012,
			"byteOffset":30012,
			"target":34962
		},
		{
			"buffer":0,
			"byteLength":20008,
			"byteOffset":60024,
			"target":34962
		},
		{
			"buffer":0,
			"byteLength":24144,
			"byteOffset":80032,
			"target":34963
		}
	],
	"samplers":[
		{
			"magFilter":9729,
			"minFilter":9987
		}
	],
	"buffers":[
		{
			"byteLength":104176,
			"uri":"hint.bin"
		}
	]
}
