{
	"asset":{
		"generator":"Khronos glTF Blender I/O v4.2.60",
		"version":"2.0"
	},
	"scene":0,
	"scenes":[
		{
			"name":"Scene",
			"nodes":[
				0
			]
		}
	],
	"nodes":[
		{
			"mesh":0,
			"name":"Maze"
		}
	],
	"meshes":[
		{
			"name":"Maze.002",
			"primitives":[
				{
					"attributes":{
						"POSITION":0,
						"NORMAL":1
					},
					"indices":2
				}
			]
		}
	],
	"accessors":[
		{
			"bufferView":0,
			"componentType":5126,
			"count":63350,
			"max":[
				37.35448455810547,
				3.9999566078186035,
				38.522796630859375
			],
			"min":[
				-38.79551315307617,
				-4.3392181396484375e-05,
				-37.627201080322266
			],
			"type":"VEC3"
		},
		{
			"bufferView":1,
			"componentType":5126,
			"count":63350,
			"type":"VEC3"
		},
		{
			"bufferView":2,
			"componentType":5123,
			"count":73452,
			"type":"SCALAR"
		}
	],
	"bufferViews":[
		{
			"buffer":0,
			"byteLength":760200,
			"byteOffset":0,
			"target":34962
		},
		{
			"buffer":0,
			"byteLength":760200,
			"byteOffset":760200,
			"target":34962
		},
		{
			"buffer":0,
			"byteLength":146904,
			"byteOffset":1520400,
			"target":34963
		}
	],
	"buffers":[
		{
			"byteLength":1667304,
			"uri":"maze_prova_generated.bin"
		}
	]
}
