{
	"asset":{
		"generator":"Khronos glTF Blender I/O v4.2.60",
		"version":"2.0"
	},
	"scene":0,
	"scenes":[
		{
			"name":"Scene",
			"nodes":[
				0
			]
		}
	],
	"nodes":[
		{
			"mesh":0,
			"name":"Part 1",
			"scale":[
				37.744632720947266,
				37.744632720947266,
				37.744632720947266
			]
		}
	],
	"materials":[
		{
			"doubleSided":true,
			"name":"0.615686_0.811765_0.929412_0.000000_0.000000",
			"pbrMetallicRoughness":{
				"baseColorFactor":[
					0.615686297416687,
					0.8117647171020508,
					0.929411768913269,
					1
				],
				"metallicFactor":0
			}
		}
	],
	"meshes":[
		{
			"name":"mesh0_mesh",
			"primitives":[
				{
					"attributes":{
						"POSITION":0,
						"NORMAL":1,
						"TEXCOORD_0":2
					},
					"indices":3,
					"material":0
				}
			]
		}
	],
	"accessors":[
		{
			"bufferView":0,
			"componentType":5126,
			"count":412,
			"max":[
				0.05079999938607216,
				0.026200000196695328,
				0.05079999938607216
			],
			"min":[
				-0.05079999938607216,
				0,
				-0.05079999938607216
			],
			"type":"VEC3"
		},
		{
			"bufferView":1,
			"componentType":5126,
			"count":412,
			"type":"VEC3"
		},
		{
			"bufferView":2,
			"componentType":5126,
			"count":412,
			"type":"VEC2"
		},
		{
			"bufferView":3,
			"componentType":5123,
			"count":804,
			"type":"SCALAR"
		}
	],
	"bufferViews":[
		{
			"buffer":0,
			"byteLength":4944,
			"byteOffset":0,
			"target":34962
		},
		{
			"buffer":0,
			"byteLength":4944,
			"byteOffset":4944,
			"target":34962
		},
		{
			"buffer":0,
			"byteLength":3296,
			"byteOffset":9888,
			"target":34962
		},
		{
			"buffer":0,
			"byteLength":1608,
			"byteOffset":13184,
			"target":34963
		}
	],
	"buffers":[
		{
			"byteLength":14792,
			"uri":"Maze_PROVA.bin"
		}
	]
}
