{
	"asset":{
		"generator":"Khronos glTF Blender I/O v4.2.60",
		"version":"2.0"
	},
	"scene":0,
	"scenes":[
		{
			"name":"Scene",
			"nodes":[
				0
			]
		}
	],
	"nodes":[
		{
			"mesh":0,
			"name":"Plane",
			"scale":[
				5,
				5,
				5
			]
		}
	],
	"meshes":[
		{
			"name":"Plane.002",
			"primitives":[
				{
					"attributes":{
						"POSITION":0,
						"NORMAL":1,
						"TEXCOORD_0":2
					},
					"indices":3
				}
			]
		}
	],
	"accessors":[
		{
			"bufferView":0,
			"componentType":5126,
			"count":8016,
			"max":[
				50,
				10.000001907348633,
				50
			],
			"min":[
				-50,
				0,
				-50
			],
			"type":"VEC3"
		},
		{
			"bufferView":1,
			"componentType":5126,
			"count":8016,
			"type":"VEC3"
		},
		{
			"bufferView":2,
			"componentType":5126,
			"count":8016,
			"type":"VEC2"
		},
		{
			"bufferView":3,
			"componentType":5123,
			"count":20670,
			"type":"SCALAR"
		}
	],
	"bufferViews":[
		{
			"buffer":0,
			"byteLength":96192,
			"byteOffset":0,
			"target":34962
		},
		{
			"buffer":0,
			"byteLength":96192,
			"byteOffset":96192,
			"target":34962
		},
		{
			"buffer":0,
			"byteLength":64128,
			"byteOffset":192384,
			"target":34962
		},
		{
			"buffer":0,
			"byteLength":41340,
			"byteOffset":256512,
			"target":34963
		}
	],
	"buffers":[
		{
			"byteLength":297852,
			"uri":"mazemesh.bin"
		}
	]
}
