{
	"asset":{
		"generator":"Khronos glTF Blender I/O v4.2.60",
		"version":"2.0"
	},
	"extensionsUsed":[
		"KHR_materials_specular"
	],
	"scene":0,
	"scenes":[
		{
			"name":"Scene",
			"nodes":[
				0
			]
		}
	],
	"nodes":[
		{
			"mesh":0,
			"name":"Maze"
		}
	],
	"materials":[
		{
			"doubleSided":true,
			"extensions":{
				"KHR_materials_specular":{
					"specularFactor":0
				}
			},
			"name":"Stone Ground",
			"normalTexture":{
				"index":0
			},
			"pbrMetallicRoughness":{
				"baseColorTexture":{
					"index":1
				},
				"metallicFactor":0,
				"metallicRoughnessTexture":{
					"index":2
				}
			}
		}
	],
	"meshes":[
		{
			"name":"Maze.006",
			"primitives":[
				{
					"attributes":{
						"POSITION":0,
						"NORMAL":1,
						"TEXCOORD_0":2
					},
					"indices":3,
					"material":0
				}
			]
		}
	],
	"textures":[
		{
			"sampler":0,
			"source":0
		},
		{
			"sampler":0,
			"source":1
		},
		{
			"sampler":0,
			"source":2
		}
	],
	"images":[
		{
			"mimeType":"image/jpeg",
			"name":"stone_ground_10_normal",
			"uri":"stone_ground_10_normal.jpg"
		},
		{
			"mimeType":"image/jpeg",
			"name":"stone_ground_10_color",
			"uri":"stone_ground_10_color.jpg"
		},
		{
			"mimeType":"image/png",
			"name":"stone_ground_10_roughness",
			"uri":"stone_ground_10_roughness.png"
		}
	],
	"accessors":[
		{
			"bufferView":0,
			"componentType":5126,
			"count":886,
			"max":[
				33.49539566040039,
				3.125735282897949,
				37.96836471557617
			],
			"min":[
				-41.5440559387207,
				0.00026428699493408203,
				-37.18087387084961
			],
			"type":"VEC3"
		},
		{
			"bufferView":1,
			"componentType":5126,
			"count":886,
			"type":"VEC3"
		},
		{
			"bufferView":2,
			"componentType":5126,
			"count":886,
			"type":"VEC2"
		},
		{
			"bufferView":3,
			"componentType":5123,
			"count":1644,
			"type":"SCALAR"
		}
	],
	"bufferViews":[
		{
			"buffer":0,
			"byteLength":10632,
			"byteOffset":0,
			"target":34962
		},
		{
			"buffer":0,
			"byteLength":10632,
			"byteOffset":10632,
			"target":34962
		},
		{
			"buffer":0,
			"byteLength":7088,
			"byteOffset":21264,
			"target":34962
		},
		{
			"buffer":0,
			"byteLength":3288,
			"byteOffset":28352,
			"target":34963
		}
	],
	"samplers":[
		{
			"magFilter":9729,
			"minFilter":9987
		}
	],
	"buffers":[
		{
			"byteLength":31640,
			"uri":"mazegenerated2.bin"
		}
	]
}
