{
	"asset":{
		"generator":"Khronos glTF Blender I/O v4.2.60",
		"version":"2.0"
	},
	"scene":0,
	"scenes":[
		{
			"name":"Scene",
			"nodes":[
				0
			]
		}
	],
	"nodes":[
		{
			"mesh":0,
			"name":"Maze"
		}
	],
	"meshes":[
		{
			"name":"Maze.008",
			"primitives":[
				{
					"attributes":{
						"POSITION":0,
						"NORMAL":1
					},
					"indices":2
				}
			]
		}
	],
	"accessors":[
		{
			"bufferView":0,
			"componentType":5126,
			"count":68672,
			"max":[
				48.32526397705078,
				4.999938011169434,
				50.73224639892578
			],
			"min":[
				-51.82473373413086,
				-6.175041198730469e-05,
				-49.41775131225586
			],
			"type":"VEC3"
		},
		{
			"bufferView":1,
			"componentType":5126,
			"count":68672,
			"type":"VEC3"
		},
		{
			"bufferView":2,
			"componentType":5125,
			"count":78888,
			"type":"SCALAR"
		}
	],
	"bufferViews":[
		{
			"buffer":0,
			"byteLength":824064,
			"byteOffset":0,
			"target":34962
		},
		{
			"buffer":0,
			"byteLength":824064,
			"byteOffset":824064,
			"target":34962
		},
		{
			"buffer":0,
			"byteLength":315552,
			"byteOffset":1648128,
			"target":34963
		}
	],
	"buffers":[
		{
			"byteLength":1963680,
			"uri":"maze_prova3_generated.bin"
		}
	]
}
