{
	"asset":{
		"generator":"Khronos glTF Blender I/O v4.2.60",
		"version":"2.0"
	},
	"extensionsUsed":[
		"KHR_materials_specular",
		"KHR_materials_ior",
		"KHR_texture_transform"
	],
	"extensionsRequired":[
		"KHR_texture_transform"
	],
	"scene":0,
	"scenes":[
		{
			"name":"Scene",
			"nodes":[
				3
			]
		}
	],
	"nodes":[
		{
			"mesh":0,
			"name":"leaves.001"
		},
		{
			"children":[
				0
			],
			"mesh":1,
			"name":"tree.001"
		},
		{
			"children":[
				1
			],
			"mesh":2,
			"name":"tree.003",
			"rotation":[
				0,
				0.9473484754562378,
				0,
				0.3202044367790222
			],
			"scale":[
				0.5606725215911865,
				0.5606725215911865,
				0.5606725215911865
			],
			"translation":[
				-0.0033873319625854492,
				0,
				0
			]
		},
		{
			"children":[
				2
			],
			"name":"Tree",
			"translation":[
				-0.6578235626220703,
				0.8334199786186218,
				-0.0884103775024414
			]
		}
	],
	"materials":[
		{
			"doubleSided":true,
			"name":"Material.001",
			"normalTexture":{
				"index":0
			},
			"pbrMetallicRoughness":{
				"baseColorTexture":{
					"index":1
				},
				"metallicFactor":0,
				"roughnessFactor":0.4783950746059418
			}
		},
		{
			"doubleSided":true,
			"extensions":{
				"KHR_materials_specular":{
					"specularFactor":0
				},
				"KHR_materials_ior":{
					"ior":1.4500000476837158
				}
			},
			"name":"Moss Bark.001",
			"normalTexture":{
				"extensions":{
					"KHR_texture_transform":{
						"offset":[
							0,
							-24.39999771118164
						],
						"scale":[
							25.39999771118164,
							25.39999771118164
						]
					}
				},
				"index":2
			},
			"pbrMetallicRoughness":{
				"baseColorTexture":{
					"extensions":{
						"KHR_texture_transform":{
							"offset":[
								0,
								-24.39999771118164
							],
							"scale":[
								25.39999771118164,
								25.39999771118164
							]
						}
					},
					"index":3
				},
				"metallicFactor":0,
				"metallicRoughnessTexture":{
					"extensions":{
						"KHR_texture_transform":{
							"offset":[
								0,
								-24.39999771118164
							],
							"scale":[
								25.39999771118164,
								25.39999771118164
							]
						}
					},
					"index":4
				}
			}
		},
		{
			"doubleSided":true,
			"extensions":{
				"KHR_materials_specular":{
					"specularFactor":0
				},
				"KHR_materials_ior":{
					"ior":1.4500000476837158
				}
			},
			"name":"Moss Bark",
			"normalTexture":{
				"extensions":{
					"KHR_texture_transform":{
						"offset":[
							0,
							-24.39999771118164
						],
						"scale":[
							25.39999771118164,
							25.39999771118164
						]
					}
				},
				"index":5
			},
			"pbrMetallicRoughness":{
				"baseColorTexture":{
					"extensions":{
						"KHR_texture_transform":{
							"offset":[
								0,
								-24.39999771118164
							],
							"scale":[
								25.39999771118164,
								25.39999771118164
							]
						}
					},
					"index":6
				},
				"metallicFactor":0,
				"metallicRoughnessTexture":{
					"extensions":{
						"KHR_texture_transform":{
							"offset":[
								0,
								-24.39999771118164
							],
							"scale":[
								25.39999771118164,
								25.39999771118164
							]
						}
					},
					"index":7
				}
			}
		}
	],
	"meshes":[
		{
			"name":"leaves.001",
			"primitives":[
				{
					"attributes":{
						"POSITION":0,
						"NORMAL":1,
						"TEXCOORD_0":2
					},
					"indices":3,
					"material":0
				}
			]
		},
		{
			"name":"tree.001",
			"primitives":[
				{
					"attributes":{
						"POSITION":4,
						"NORMAL":5,
						"TEXCOORD_0":6
					},
					"indices":7,
					"material":1
				}
			]
		},
		{
			"name":"tree.002",
			"primitives":[
				{
					"attributes":{
						"POSITION":8,
						"NORMAL":9,
						"TEXCOORD_0":10
					},
					"indices":11,
					"material":2
				}
			]
		}
	],
	"textures":[
		{
			"sampler":0,
			"source":0
		},
		{
			"sampler":0,
			"source":1
		},
		{
			"sampler":0,
			"source":2
		},
		{
			"sampler":0,
			"source":3
		},
		{
			"sampler":0,
			"source":4
		},
		{
			"sampler":0,
			"source":2
		},
		{
			"sampler":0,
			"source":3
		},
		{
			"sampler":0,
			"source":4
		}
	],
	"images":[
		{
			"mimeType":"image/jpeg",
			"name":"GreenLeaf12_4K_back_Normal",
			"uri":"GreenLeaf12_4K_back_Normal.jpg"
		},
		{
			"mimeType":"image/jpeg",
			"name":"AutumnLeaf19_3K_front_BaseColor",
			"uri":"AutumnLeaf19_3K_front_BaseColor.jpg"
		},
		{
			"mimeType":"image/jpeg",
			"name":"Moss Bark_Normal",
			"uri":"Moss%20Bark_Normal.jpg"
		},
		{
			"mimeType":"image/jpeg",
			"name":"Moss Bark_BaseColor",
			"uri":"Moss%20Bark_BaseColor.jpg"
		},
		{
			"mimeType":"image/png",
			"name":"Moss Bark_Roughness",
			"uri":"Moss%20Bark_Roughness.png"
		}
	],
	"accessors":[
		{
			"bufferView":0,
			"componentType":5126,
			"count":531792,
			"max":[
				7.605672359466553,
				16.596120834350586,
				8.423828125
			],
			"min":[
				-7.401765823364258,
				2.29685115814209,
				-6.869588851928711
			],
			"type":"VEC3"
		},
		{
			"bufferView":1,
			"componentType":5126,
			"count":531792,
			"type":"VEC3"
		},
		{
			"bufferView":2,
			"componentType":5126,
			"count":531792,
			"type":"VEC2"
		},
		{
			"bufferView":3,
			"componentType":5125,
			"count":1003716,
			"type":"SCALAR"
		},
		{
			"bufferView":4,
			"componentType":5126,
			"count":988809,
			"max":[
				7.506649017333984,
				16.48448944091797,
				8.395676612854004
			],
			"min":[
				-7.258049964904785,
				2.414669990539551,
				-6.7399001121521
			],
			"type":"VEC3"
		},
		{
			"bufferView":5,
			"componentType":5126,
			"count":988809,
			"type":"VEC3"
		},
		{
			"bufferView":6,
			"componentType":5126,
			"count":988809,
			"type":"VEC2"
		},
		{
			"bufferView":7,
			"componentType":5125,
			"count":3082464,
			"type":"SCALAR"
		},
		{
			"bufferView":8,
			"componentType":5126,
			"count":375,
			"max":[
				1.0909481048583984,
				6.303167343139648,
				1.125548005104065
			],
			"min":[
				-1.3583948612213135,
				0,
				-1.1663663387298584
			],
			"type":"VEC3"
		},
		{
			"bufferView":9,
			"componentType":5126,
			"count":375,
			"type":"VEC3"
		},
		{
			"bufferView":10,
			"componentType":5126,
			"count":375,
			"type":"VEC2"
		},
		{
			"bufferView":11,
			"componentType":5123,
			"count":1344,
			"type":"SCALAR"
		}
	],
	"bufferViews":[
		{
			"buffer":0,
			"byteLength":6381504,
			"byteOffset":0,
			"target":34962
		},
		{
			"buffer":0,
			"byteLength":6381504,
			"byteOffset":6381504,
			"target":34962
		},
		{
			"buffer":0,
			"byteLength":4254336,
			"byteOffset":12763008,
			"target":34962
		},
		{
			"buffer":0,
			"byteLength":4014864,
			"byteOffset":17017344,
			"target":34963
		},
		{
			"buffer":0,
			"byteLength":11865708,
			"byteOffset":21032208,
			"target":34962
		},
		{
			"buffer":0,
			"byteLength":11865708,
			"byteOffset":32897916,
			"target":34962
		},
		{
			"buffer":0,
			"byteLength":7910472,
			"byteOffset":44763624,
			"target":34962
		},
		{
			"buffer":0,
			"byteLength":12329856,
			"byteOffset":52674096,
			"target":34963
		},
		{
			"buffer":0,
			"byteLength":4500,
			"byteOffset":65003952,
			"target":34962
		},
		{
			"buffer":0,
			"byteLength":4500,
			"byteOffset":65008452,
			"target":34962
		},
		{
			"buffer":0,
			"byteLength":3000,
			"byteOffset":65012952,
			"target":34962
		},
		{
			"buffer":0,
			"byteLength":2688,
			"byteOffset":65015952,
			"target":34963
		}
	],
	"samplers":[
		{
			"magFilter":9729,
			"minFilter":9987
		}
	],
	"buffers":[
		{
			"byteLength":65018640,
			"uri":"tree.bin"
		}
	]
}
