{
	"asset":{
		"generator":"Khronos glTF Blender I/O v4.2.60",
		"version":"2.0"
	},
	"scene":0,
	"scenes":[
		{
			"name":"Scene",
			"nodes":[
				0,
				1
			]
		}
	],
	"nodes":[
		{
			"name":"Empty.001",
			"translation":[
				8.408007621765137,
				0.6396215558052063,
				-4.92189884185791
			]
		},
		{
			"mesh":0,
			"name":"externalWalls",
			"scale":[
				0.4921259880065918,
				1.2999999523162842,
				0.4921259880065918
			],
			"translation":[
				4.130350112915039,
				0,
				-11.220288276672363
			]
		}
	],
	"meshes":[
		{
			"name":"Plane.001",
			"primitives":[
				{
					"attributes":{
						"POSITION":0,
						"NORMAL":1,
						"TEXCOORD_0":2
					},
					"indices":3
				}
			]
		}
	],
	"accessors":[
		{
			"bufferView":0,
			"componentType":5126,
			"count":1647,
			"max":[
				2.825488567352295,
				2.3109750747680664,
				37.8475456237793
			],
			"min":[
				-48.68300247192383,
				-0.05709077790379524,
				-0.34101253747940063
			],
			"type":"VEC3"
		},
		{
			"bufferView":1,
			"componentType":5126,
			"count":1647,
			"type":"VEC3"
		},
		{
			"bufferView":2,
			"componentType":5126,
			"count":1647,
			"type":"VEC2"
		},
		{
			"bufferView":3,
			"componentType":5123,
			"count":2940,
			"type":"SCALAR"
		}
	],
	"bufferViews":[
		{
			"buffer":0,
			"byteLength":19764,
			"byteOffset":0,
			"target":34962
		},
		{
			"buffer":0,
			"byteLength":19764,
			"byteOffset":19764,
			"target":34962
		},
		{
			"buffer":0,
			"byteLength":13176,
			"byteOffset":39528,
			"target":34962
		},
		{
			"buffer":0,
			"byteLength":5880,
			"byteOffset":52704,
			"target":34963
		}
	],
	"buffers":[
		{
			"byteLength":58584,
			"uri":"untitled.bin"
		}
	]
}
