{
	"asset":{
		"generator":"Khronos glTF Blender I/O v4.2.60",
		"version":"2.0"
	},
	"scene":0,
	"scenes":[
		{
			"name":"Scene",
			"nodes":[
				0
			]
		}
	],
	"nodes":[
		{
			"mesh":0,
			"name":"Maze"
		}
	],
	"meshes":[
		{
			"name":"Maze.005",
			"primitives":[
				{
					"attributes":{
						"POSITION":0,
						"NORMAL":1
					},
					"indices":2
				}
			]
		}
	],
	"accessors":[
		{
			"bufferView":0,
			"componentType":5126,
			"count":49940,
			"max":[
				47.84328842163086,
				20.00030517578125,
				48.55936813354492
			],
			"min":[
				-47.30670928955078,
				0.00030517578125,
				-46.59062957763672
			],
			"type":"VEC3"
		},
		{
			"bufferView":1,
			"componentType":5126,
			"count":49940,
			"type":"VEC3"
		},
		{
			"bufferView":2,
			"componentType":5123,
			"count":79176,
			"type":"SCALAR"
		}
	],
	"bufferViews":[
		{
			"buffer":0,
			"byteLength":599280,
			"byteOffset":0,
			"target":34962
		},
		{
			"buffer":0,
			"byteLength":599280,
			"byteOffset":599280,
			"target":34962
		},
		{
			"buffer":0,
			"byteLength":158352,
			"byteOffset":1198560,
			"target":34963
		}
	],
	"buffers":[
		{
			"byteLength":1356912,
			"uri":"untitled.bin"
		}
	]
}
